<svg width="26" height="26" viewBox="0 0 26 26" fill="none" xmlns="http://www.w3.org/2000/svg">
<path d="M0.510349 14.0521H2.58012C2.72331 14.0521 2.84047 13.9349 2.84047 13.7917V5.48113H20.043V7.84441C20.043 7.90626 20.0625 7.96485 20.1016 8.01368C20.1235 8.04179 20.1508 8.06529 20.1818 8.08282C20.2129 8.10034 20.2471 8.11154 20.2825 8.11578C20.3179 8.12001 20.3538 8.1172 20.3881 8.1075C20.4224 8.0978 20.4544 8.0814 20.4824 8.05925L25.1459 4.39714C25.2858 4.23438 25.263 4.06186 25.1459 3.96746L20.4824 0.308603C20.4344 0.270205 20.3746 0.249513 20.3131 0.250009C20.1634 0.250009 20.0398 0.373706 20.0398 0.523446V2.88673H2.58338C1.2979 2.88673 0.25 3.9349 0.25 5.22397V13.7917C0.25 13.9349 0.367157 14.0521 0.510349 14.0521ZM24.9831 11.4479H22.9134C22.7702 11.4479 22.653 11.5651 22.653 11.7083V20.0189H5.45047V17.6556C5.45047 17.5938 5.43094 17.5352 5.39189 17.4863C5.36997 17.4582 5.34269 17.4347 5.31165 17.4172C5.2806 17.3997 5.24639 17.3885 5.211 17.3842C5.1756 17.38 5.13972 17.3828 5.10542 17.3925C5.07111 17.4022 5.03907 17.4186 5.01113 17.4408L0.347631 21.1029C0.207693 21.2656 0.230474 21.4382 0.347631 21.5326L5.01113 25.1914C5.05994 25.2305 5.11852 25.25 5.18036 25.25C5.33006 25.25 5.45372 25.1263 5.45372 24.9766V22.6133H22.9166C24.2021 22.6133 25.25 21.5651 25.25 20.276V11.7083C25.2435 11.5651 25.1263 11.4479 24.9831 11.4479Z" fill="#1AD087"/>
</svg>
